<svg xmlns="http://www.w3.org/2000/svg" viewBox="0 -0.7 231.95763 231.95763">
<path d="M 190.63867 0 C 165.43867 -4.7369516e-15 156.63867 18.200391 156.63867 30.400391 L 156.63867 62.599609 C 156.63867 79.099609 165.53984 94.800781 188.83984 94.800781 C 227.53984 94.800781 222.83984 65.400391 222.83984 44.900391 L 192.43945 44.900391 L 192.43945 55.599609 L 210.33984 55.599609 C 210.33984 71.499609 202.93984 82.400391 188.83984 82.400391 C 177.53984 82.400391 170.93945 72.499609 170.93945 59.099609 L 170.93945 32.300781 C 170.93945 19.900781 182.73867 12.599609 190.63867 12.599609 C 204.83867 12.599609 210.33984 25.099609 210.33984 25.099609 L 221.03906 17.900391 C 221.03906 17.900391 215.83867 0 190.63867 0 z M 79.839844 55.800781 C 62.039844 55.800781 34.739453 57.400391 8.9394531 56.400391 L 8.9394531 64.5 C 24.539453 67.4 30.939453 65.800391 30.939453 88.400391 L 30.939453 197.80078 C 30.939453 220.40078 24.439453 218.80117 8.9394531 221.70117 L 8.9394531 229.80078 C 16.439453 229.60078 29.441016 229 42.541016 229 C 55.041016 229 71.240625 229.50078 78.140625 229.80078 L 78.140625 221.70117 C 58.340625 219.00117 52.339844 221.30078 52.339844 197.80078 L 52.339844 151.40039 C 59.039844 152.00039 64.840234 152 73.740234 152 C 90.640234 182.3 106.73945 204.99961 115.93945 215.59961 C 132.73945 235.79961 159.33945 232.80078 165.93945 229.80078 L 165.93945 222.5 C 155.93945 222.5 145.94023 215.60078 138.74023 207.80078 C 126.54023 194.50078 110.14101 173.10039 96.541016 148.90039 C 119.04101 143.60039 135.74023 122.50039 135.74023 101.40039 C 135.74023 70.200391 111.53984 55.800781 79.839844 55.800781 z M 74.839844 68.400391 C 98.139844 68.400391 112.04102 80.600391 112.04102 102.90039 C 112.04102 124.80039 97.039844 139.5 72.339844 139.5 C 62.939844 139.5 58.739844 139.20117 52.339844 138.70117 L 52.339844 69 C 58.739844 68.4 67.339844 68.400391 74.839844 68.400391 z " fill="#ffffff" />
</svg>
